<svg version="1.0" xmlns="http://www.w3.org/2000/svg"
 width="22" height="22" viewBox="0 0 22.000000 22.000000"
 preserveAspectRatio="xMidYMid meet">

<g transform="translate(0.000000,22.000000) scale(0.100000,-0.100000)"
fill="#ff4444" stroke="none">
<path d="M0 110 l0 -110 110 0 110 0 0 110 0 110 -110 0 -110 0 0 -110z m180
45 c-10 -12 -10 -19 -2 -27 9 -9 12 -7 12 7 0 10 3 16 6 12 3 -3 3 -15 -1 -27
-6 -20 -8 -20 -25 -5 -12 11 -20 13 -25 6 -3 -6 -14 -11 -23 -11 -14 0 -13 2
3 13 12 9 14 16 7 21 -11 6 -46 -24 -63 -56 -14 -27 39 -38 58 -13 7 11 13 14
13 7 0 -17 -39 -40 -60 -35 -10 3 -21 0 -24 -6 -4 -6 -13 -11 -21 -11 -9 0 -3
17 20 53 62 96 60 94 82 75 18 -16 19 -16 32 3 7 12 15 18 18 15 3 -3 0 -13
-7 -21z m-75 -74 c-3 -6 -11 -11 -16 -11 -5 0 -4 6 3 14 14 16 24 13 13 -3z"/>
</g>
</svg>